<?xml version="1.0" standalone="no"?>
<!DOCTYPE svg PUBLIC "-//W3C//DTD SVG 1.1//EN"
"http://www.w3.org/Graphics/SVG/1.1/DTD/svg11.dtd">

<svg width="900" height="407" view_box="0 0 900 407"
xmlns="http://www.w3.org/2000/svg"
xmlns:link="http://www.w3.org/1999/xlink">\n\n<desc>Généré par Mocodo 2.3.7 le Wed, 24 Jul 2019 03:21:12</desc>

<rect id="frame" x="0" y="0" width="900" height="407" fill="#f7f7f7" stroke="none" stroke-width="0"/>

<!-- Association can have -->
<line x1="451" y1="330" x2="451" y2="212" stroke="#5aae61" stroke-width="2"/>
<text x="456.0" y="254" fill="#762a83" font-family="Verdana" font-size="12">1,N</text>
<line x1="451" y1="94" x2="451" y2="212" stroke="#5aae61" stroke-width="2"/>
<text x="456.0" y="179" fill="#762a83" font-family="Verdana" font-size="12">1,1</text>
<g id="association-can have">
	<path d="M 472 187 a 14 14 90 0 1 14 14 V 212 h -70 V 201 a 14 14 90 0 1 14 -14" fill="#a6dba0" stroke="#a6dba0" stroke-width="0"/>
	<path d="M 486 212.0 v 11 a 14 14 90 0 1 -14 14 H 430 a 14 14 90 0 1 -14 -14 V 212.0 H 70" fill="#d9f0d3" stroke="#d9f0d3" stroke-width="0"/>
	<rect x="416" y="187" width="70" height="50" fill="none" rx="14" stroke="#5aae61" stroke-width="2"/>
	<line x1="416" y1="212" x2="486" y2="212" stroke="#5aae61" stroke-width="1"/>
	<text x="423" y="204.7" fill="#000000" font-family="Verdana" font-size="12">can have</text>
</g>

<!-- Association have7 -->
<line x1="852" y1="94" x2="759" y2="94" stroke="#5aae61" stroke-width="2"/>
<text x="786" y="111.0" fill="#762a83" font-family="Verdana" font-size="12">1,N</text>
<line x1="683" y1="94" x2="759" y2="94" stroke="#5aae61" stroke-width="2"/>
<text x="710" y="111.0" fill="#762a83" font-family="Verdana" font-size="12">1,1</text>
<g id="association-have7">
	<path d="M 767 69 a 14 14 90 0 1 14 14 V 94 h -44 V 83 a 14 14 90 0 1 14 -14" fill="#a6dba0" stroke="#a6dba0" stroke-width="0"/>
	<path d="M 781 94.0 v 11 a 14 14 90 0 1 -14 14 H 751 a 14 14 90 0 1 -14 -14 V 94.0 H 44" fill="#d9f0d3" stroke="#d9f0d3" stroke-width="0"/>
	<rect x="737" y="69" width="44" height="50" fill="none" rx="14" stroke="#5aae61" stroke-width="2"/>
	<line x1="737" y1="94" x2="781" y2="94" stroke="#5aae61" stroke-width="1"/>
	<text x="744" y="86.7" fill="#000000" font-family="Verdana" font-size="12">have</text>
</g>

<!-- Association hasMany -->
<line x1="451" y1="94" x2="345" y2="94" stroke="#5aae61" stroke-width="2"/>
<text x="385" y="111.0" fill="#762a83" font-family="Verdana" font-size="12">1,1</text>
<line x1="221" y1="94" x2="345" y2="94" stroke="#5aae61" stroke-width="2"/>
<text x="284" y="111.0" fill="#762a83" font-family="Verdana" font-size="12">0,N</text>
<g id="association-hasMany">
	<path d="M 365 69 a 14 14 90 0 1 14 14 V 94 h -68 V 83 a 14 14 90 0 1 14 -14" fill="#a6dba0" stroke="#a6dba0" stroke-width="0"/>
	<path d="M 379 94.0 v 11 a 14 14 90 0 1 -14 14 H 325 a 14 14 90 0 1 -14 -14 V 94.0 H 68" fill="#d9f0d3" stroke="#d9f0d3" stroke-width="0"/>
	<rect x="311" y="69" width="68" height="50" fill="none" rx="14" stroke="#5aae61" stroke-width="2"/>
	<line x1="311" y1="94" x2="379" y2="94" stroke="#5aae61" stroke-width="1"/>
	<text x="318" y="86.7" fill="#000000" font-family="Verdana" font-size="12">hasMany</text>
</g>

<!-- Association NOTE_REVIEW -->
<line x1="683" y1="94" x2="576" y2="94" stroke="#5aae61" stroke-width="2"/>
<text x="634" y="111.0" fill="#762a83" font-family="Verdana" font-size="12">1,N</text>
<line x1="451" y1="94" x2="576" y2="94" stroke="#5aae61" stroke-width="2"/>
<text x="496" y="111.0" fill="#762a83" font-family="Verdana" font-size="12">1,N</text>
<g id="association-NOTE_REVIEW">
	<path d="M 615 69 a 14 14 90 0 1 14 14 V 94 h -106 V 83 a 14 14 90 0 1 14 -14" fill="#a6dba0" stroke="#a6dba0" stroke-width="0"/>
	<path d="M 629 94.0 v 11 a 14 14 90 0 1 -14 14 H 537 a 14 14 90 0 1 -14 -14 V 94.0 H 106" fill="#d9f0d3" stroke="#d9f0d3" stroke-width="0"/>
	<rect x="523" y="69" width="106" height="50" fill="none" rx="14" stroke="#5aae61" stroke-width="2"/>
	<line x1="523" y1="94" x2="629" y2="94" stroke="#5aae61" stroke-width="1"/>
	<text x="530" y="86.7" fill="#000000" font-family="Verdana" font-size="12">NOTE_REVIEW</text>
	<text x="530" y="111.8" fill="#000000" font-family="Verdana" font-size="12">number</text>
</g>

<!-- Association have -->
<line x1="221" y1="94" x2="109" y2="94" stroke="#5aae61" stroke-width="2"/>
<text x="137" y="111.0" fill="#762a83" font-family="Verdana" font-size="12">1,1</text>
<line x1="32" y1="94" x2="109" y2="94" stroke="#5aae61" stroke-width="2"/>
<text x="60" y="111.0" fill="#762a83" font-family="Verdana" font-size="12">0,N</text>
<g id="association-have">
	<path d="M 117 69 a 14 14 90 0 1 14 14 V 94 h -44 V 83 a 14 14 90 0 1 14 -14" fill="#a6dba0" stroke="#a6dba0" stroke-width="0"/>
	<path d="M 131 94.0 v 11 a 14 14 90 0 1 -14 14 H 101 a 14 14 90 0 1 -14 -14 V 94.0 H 44" fill="#d9f0d3" stroke="#d9f0d3" stroke-width="0"/>
	<rect x="87" y="69" width="44" height="50" fill="none" rx="14" stroke="#5aae61" stroke-width="2"/>
	<line x1="87" y1="94" x2="131" y2="94" stroke="#5aae61" stroke-width="1"/>
	<text x="94" y="86.7" fill="#000000" font-family="Verdana" font-size="12">have</text>
</g>

<!-- Entity CATEGORY -->
<g id="entity-CATEGORY">
	<g id="frame-CATEGORY">
		<rect x="813" y="69" width="78" height="25" fill="#c2a5cf" stroke="#c2a5cf" stroke-width="0"/>
		<rect x="813" y="94.0" width="78" height="25" fill="#e7d4e8" stroke="#e7d4e8" stroke-width="0"/>
		<rect x="813" y="69" width="78" height="50" fill="none" stroke="#9970ab" stroke-width="2"/>
		<line x1="813" y1="94" x2="891" y2="94" stroke="#9970ab" stroke-width="1"/>
	</g>
	<text x="818" y="86.7" fill="#000000" font-family="Verdana" font-size="12">CATEGORY</text>
	<text x="818" y="111.8" fill="#000000" font-family="Verdana" font-size="12">label</text>
	<line x1="818" y1="114" x2="847" y2="114" stroke="#000000" stroke-width="1"/>
</g>

<!-- Entity APPARTMENT -->
<g id="entity-APPARTMENT">
	<g id="frame-APPARTMENT">
		<rect x="405" y="262" width="92" height="25" fill="#c2a5cf" stroke="#c2a5cf" stroke-width="0"/>
		<rect x="405" y="287.0" width="92" height="111" fill="#e7d4e8" stroke="#e7d4e8" stroke-width="0"/>
		<rect x="405" y="262" width="92" height="136" fill="none" stroke="#9970ab" stroke-width="2"/>
		<line x1="405" y1="287" x2="497" y2="287" stroke="#9970ab" stroke-width="1"/>
	</g>
	<text x="410" y="279.7" fill="#000000" font-family="Verdana" font-size="12">APPARTMENT</text>
	<text x="410" y="304.7" fill="#000000" font-family="Verdana" font-size="12">adress</text>
	<line x1="410" y1="307" x2="450" y2="307" stroke="#000000" stroke-width="1"/>
	<text x="410" y="321.7" fill="#000000" font-family="Verdana" font-size="12">floor_number</text>
	<text x="410" y="338.8" fill="#000000" font-family="Verdana" font-size="12">location</text>
	<text x="410" y="355.8" fill="#000000" font-family="Verdana" font-size="12">area</text>
	<text x="410" y="372.8" fill="#000000" font-family="Verdana" font-size="12">rooms</text>
	<text x="410" y="389.8" fill="#000000" font-family="Verdana" font-size="12">rental</text>
</g>

<!-- Entity REVIEW -->
<g id="entity-REVIEW">
	<g id="frame-REVIEW">
		<rect x="411" y="26" width="80" height="25" fill="#c2a5cf" stroke="#c2a5cf" stroke-width="0"/>
		<rect x="411" y="51.0" width="80" height="111" fill="#e7d4e8" stroke="#e7d4e8" stroke-width="0"/>
		<rect x="411" y="26" width="80" height="136" fill="none" stroke="#9970ab" stroke-width="2"/>
		<line x1="411" y1="51" x2="491" y2="51" stroke="#9970ab" stroke-width="1"/>
	</g>
	<text x="426" y="43.7" fill="#000000" font-family="Verdana" font-size="12">REVIEW</text>
	<text x="416" y="68.7" fill="#000000" font-family="Verdana" font-size="12">title</text>
	<line x1="416" y1="71" x2="440" y2="71" stroke="#000000" stroke-width="1"/>
	<text x="416" y="85.7" fill="#000000" font-family="Verdana" font-size="12">positive</text>
	<text x="416" y="102.8" fill="#000000" font-family="Verdana" font-size="12">negative</text>
	<text x="416" y="119.8" fill="#000000" font-family="Verdana" font-size="12">still_in</text>
	<text x="416" y="136.8" fill="#000000" font-family="Verdana" font-size="12">created_at</text>
	<text x="416" y="153.8" fill="#000000" font-family="Verdana" font-size="12">updated_at</text>
</g>

<!-- Entity NOTE -->
<g id="entity-NOTE">
	<g id="frame-NOTE">
		<rect x="661" y="69" width="44" height="25" fill="#c2a5cf" stroke="#c2a5cf" stroke-width="0"/>
		<rect x="661" y="94.0" width="44" height="25" fill="#e7d4e8" stroke="#e7d4e8" stroke-width="0"/>
		<rect x="661" y="69" width="44" height="50" fill="none" stroke="#9970ab" stroke-width="2"/>
		<line x1="661" y1="94" x2="705" y2="94" stroke="#9970ab" stroke-width="1"/>
	</g>
	<text x="666" y="86.7" fill="#000000" font-family="Verdana" font-size="12">NOTE</text>
	<text x="666" y="111.8" fill="#000000" font-family="Verdana" font-size="12">label</text>
	<line x1="666" y1="114" x2="695" y2="114" stroke="#000000" stroke-width="1"/>
</g>

<!-- Entity ROLE -->
<g id="entity-ROLE">
	<g id="frame-ROLE">
		<rect x="9" y="60" width="46" height="25" fill="#c2a5cf" stroke="#c2a5cf" stroke-width="0"/>
		<rect x="9" y="85.0" width="46" height="43" fill="#e7d4e8" stroke="#e7d4e8" stroke-width="0"/>
		<rect x="9" y="60" width="46" height="68" fill="none" stroke="#9970ab" stroke-width="2"/>
		<line x1="9" y1="85" x2="55" y2="85" stroke="#9970ab" stroke-width="1"/>
	</g>
	<text x="15" y="77.7" fill="#000000" font-family="Verdana" font-size="12">ROLE</text>
	<text x="14" y="102.8" fill="#000000" font-family="Verdana" font-size="12">code</text>
	<line x1="14" y1="105" x2="43" y2="105" stroke="#000000" stroke-width="1"/>
	<text x="14" y="119.8" fill="#000000" font-family="Verdana" font-size="12">name</text>
</g>

<!-- Entity USER -->
<g id="entity-USER">
	<g id="frame-USER">
		<rect x="163" y="9" width="116" height="25" fill="#c2a5cf" stroke="#c2a5cf" stroke-width="0"/>
		<rect x="163" y="34.0" width="116" height="145" fill="#e7d4e8" stroke="#e7d4e8" stroke-width="0"/>
		<rect x="163" y="9" width="116" height="170" fill="none" stroke="#9970ab" stroke-width="2"/>
		<line x1="163" y1="34" x2="279" y2="34" stroke="#9970ab" stroke-width="1"/>
	</g>
	<text x="204" y="26.7" fill="#000000" font-family="Verdana" font-size="12">USER</text>
	<text x="168" y="51.7" fill="#000000" font-family="Verdana" font-size="12">surname</text>
	<line x1="168" y1="54" x2="222" y2="54" stroke="#000000" stroke-width="1"/>
	<text x="168" y="68.7" fill="#000000" font-family="Verdana" font-size="12">name</text>
	<text x="168" y="85.7" fill="#000000" font-family="Verdana" font-size="12">username</text>
	<text x="168" y="102.8" fill="#000000" font-family="Verdana" font-size="12">age</text>
	<text x="168" y="119.8" fill="#000000" font-family="Verdana" font-size="12">email</text>
	<text x="168" y="136.8" fill="#000000" font-family="Verdana" font-size="12">password</text>
	<text x="168" y="153.8" fill="#000000" font-family="Verdana" font-size="12">isActive</text>
	<text x="168" y="170.8" fill="#000000" font-family="Verdana" font-size="12">role_json_format</text>
</g>
</svg>