<?xml version="1.0" standalone="no"?>
<!DOCTYPE svg PUBLIC "-//W3C//DTD SVG 20010904//EN"
 "http://www.w3.org/TR/2001/REC-SVG-20010904/DTD/svg10.dtd">
<svg version="1.0" xmlns="http://www.w3.org/2000/svg"
 width="200.000000pt" height="200.000000pt" viewBox="0 0 200.000000 200.000000"
 preserveAspectRatio="xMidYMid meet">
<metadata>
Created by potrace 1.15, written by Peter Selinger 2001-2017
</metadata>
<g transform="translate(0.000000,200.000000) scale(0.100000,-0.100000)"
fill="#000000" stroke="none">
<path d="M815 1420 c-121 -80 -150 -103 -150 -122 0 -13 7 -24 15 -26 9 -1 82
40 163 93 l147 95 147 -95 c81 -52 155 -95 164 -95 14 0 29 19 29 36 0 13
-322 214 -342 213 -13 0 -90 -45 -173 -99z"/>
<path d="M784 1287 c-3 -8 -3 -56 -2 -108 l3 -94 205 0 205 0 3 102 c2 94 1
102 -18 108 -33 11 -40 -3 -40 -81 l0 -74 -150 0 -150 0 0 74 c0 58 -3 75 -16
80 -24 9 -34 7 -40 -7z"/>
<path d="M457 973 c-4 -3 -7 -17 -7 -30 0 -14 -6 -23 -15 -23 -8 0 -15 -9 -15
-20 0 -11 5 -20 10 -20 6 0 10 -37 10 -90 0 -77 3 -93 20 -110 23 -23 50 -26
68 -8 18 18 14 38 -8 38 -18 0 -20 7 -20 85 0 78 2 85 20 85 13 0 20 7 20 20
0 13 -7 20 -20 20 -16 0 -20 7 -20 30 0 22 -5 30 -18 30 -10 0 -22 -3 -25 -7z"/>
<path d="M1820 950 c0 -20 -5 -30 -15 -30 -8 0 -15 -9 -15 -20 0 -11 5 -20 10
-20 6 0 10 -38 10 -93 0 -82 3 -96 20 -112 16 -15 26 -17 48 -9 33 11 43 44
14 44 -26 0 -32 18 -32 101 0 62 2 69 20 69 13 0 20 7 20 20 0 13 -7 20 -20
20 -16 0 -20 7 -20 30 0 23 -4 30 -20 30 -16 0 -20 -7 -20 -30z"/>
<path d="M100 820 l0 -150 25 0 c22 0 24 4 27 58 l3 57 19 -57 c18 -52 22 -58
48 -58 33 0 34 5 8 65 -18 43 -19 48 -4 71 10 14 16 45 16 74 0 70 -19 90 -89
90 l-53 0 0 -150z"/>
<path d="M800 820 l0 -150 25 0 c25 0 25 2 26 83 l2 82 15 -68 c13 -58 18 -68
35 -65 16 2 24 18 38 73 l17 70 1 -87 c1 -87 1 -88 26 -88 l25 0 0 150 0 150
-35 0 c-37 0 -40 -6 -62 -114 l-9 -39 -18 76 -18 77 -34 0 -34 0 0 -150z"/>
<path d="M1280 820 l0 -150 30 0 c30 0 30 0 31 58 l0 57 22 -57 c19 -52 24
-58 49 -58 33 0 34 5 8 65 -18 42 -19 49 -5 68 9 13 15 44 15 78 0 73 -16 89
-93 89 l-57 0 0 -150z"/>
<path d="M287 902 c-10 -10 -17 -31 -17 -45 0 -36 32 -36 48 -1 14 29 32 24
32 -9 0 -15 -11 -28 -34 -41 -56 -30 -72 -90 -35 -127 15 -15 27 -19 42 -14
12 4 34 6 50 6 l27 -1 0 109 c0 86 -3 113 -16 125 -21 22 -77 20 -97 -2z"/>
<path d="M574 899 c-16 -17 -19 -37 -19 -111 0 -83 2 -91 25 -110 44 -36 110
-6 110 49 0 18 -6 23 -25 23 -18 0 -25 -5 -25 -20 0 -11 -7 -20 -15 -20 -8 0
-15 6 -15 13 0 6 -3 22 -6 35 -6 20 -3 22 40 22 l46 0 0 50 c0 37 -5 55 -20
70 -26 26 -72 26 -96 -1z"/>
<path d="M1030 910 c0 -6 11 -58 25 -116 31 -130 31 -154 5 -161 -11 -3 -20
-14 -20 -24 0 -25 51 -26 73 -1 10 10 28 73 42 143 14 68 27 134 30 147 5 19
1 22 -24 22 -28 0 -29 -2 -36 -60 -4 -33 -11 -60 -15 -60 -4 0 -11 21 -15 46
-3 26 -9 53 -12 60 -6 16 -53 19 -53 4z"/>
<path d="M1481 894 c-17 -22 -21 -41 -21 -106 0 -71 2 -81 26 -105 20 -20 31
-24 57 -19 39 8 45 14 53 54 6 30 4 32 -20 32 -19 0 -26 -5 -26 -20 0 -24 -25
-27 -34 -4 -15 40 -7 53 37 56 l42 3 3 47 c2 37 -1 51 -17 67 -30 30 -75 27
-100 -5z"/>
<path d="M1630 795 l0 -125 25 0 c25 0 25 0 25 99 0 76 3 100 14 104 21 8 26
-14 26 -114 0 -88 0 -89 25 -89 l25 0 0 109 c0 86 -3 113 -16 125 -18 19 -55
21 -72 4 -9 -9 -12 -9 -12 0 0 7 -9 12 -20 12 -19 0 -20 -7 -20 -125z"/>
<path d="M750 500 l0 -30 238 2 237 3 3 28 3 27 -240 0 -241 0 0 -30z"/>
</g>
</svg>
